<?xml version="1.0" encoding="UTF-8"?>
<!DOCTYPE svg PUBLIC "-//W3C//DTD SVG 1.1//EN" "http://www.w3.org/Graphics/SVG/1.1/DTD/svg11.dtd">
<!-- Creator: CorelDRAW X8 -->
<svg xmlns="http://www.w3.org/2000/svg" xml:space="preserve" width="171.342mm" height="62.1549mm" version="1.1" style="shape-rendering:geometricPrecision; text-rendering:geometricPrecision; image-rendering:optimizeQuality; fill-rule:evenodd; clip-rule:evenodd"
viewBox="0 0 17466 6336"
 xmlns:xlink="http://www.w3.org/1999/xlink">
 <defs>
  <style type="text/css">
   <![CDATA[
    .fil2 {fill:#FF6600}
    .fil1 {fill:white}
    .fil0 {fill:white;fill-rule:nonzero}
   ]]>
  </style>
 </defs>
 <g id="Camada_x0020_1">
  <metadata id="CorelCorpID_0Corel-Layer"/>
  <path class="fil0" d="M0 4089l0 -2408 1050 0c324,0 570,61 739,183 168,122 252,300 252,533 0,162 -37,293 -112,394 -75,101 -188,173 -338,214l706 1084 -918 0 -547 -1134 0 -44c152,-22 261,-71 331,-146 70,-75 105,-182 105,-321 0,-141 -37,-249 -111,-321 -75,-72 -185,-108 -330,-108 -21,0 -39,0 -52,0 -13,1 -24,3 -35,5l0 2069 -740 0zm3174 0c-186,0 -318,-41 -395,-123 -77,-83 -115,-225 -115,-428l0 -1306c0,-203 38,-345 115,-428 77,-82 209,-123 395,-123l1121 0 0 361 -596 0c-100,0 -167,18 -201,54 -33,36 -50,109 -50,215l0 393 757 0 0 362 -757 0 0 401c0,105 17,174 50,209 32,34 99,52 201,52l634 0 0 361 -1159 0zm2439 417l0 -383c-264,-90 -473,-252 -626,-484 -154,-232 -231,-503 -231,-812 0,-370 113,-667 337,-889 224,-224 524,-335 898,-335 351,0 643,129 878,387 235,258 351,582 351,969 0,303 -73,555 -220,758 -148,202 -360,342 -636,422l0 367 -751 0zm762 -1595c0,-327 -33,-574 -99,-739 -67,-164 -167,-246 -302,-246 -125,0 -218,77 -280,234 -62,157 -92,393 -92,710 0,329 33,577 101,743 67,166 167,248 299,248 125,0 219,-79 280,-236 62,-158 93,-395 93,-714z"/>
  <path class="fil0" d="M10334 4089l0 -2408 1051 0c323,0 570,61 738,183 168,122 253,300 253,533 0,162 -37,293 -113,394 -75,101 -188,173 -338,214l706 1084 -917 0 -547 -1134 0 -44c151,-22 260,-71 331,-146 69,-75 104,-182 104,-321 0,-141 -37,-249 -111,-321 -75,-72 -184,-108 -330,-108 -21,0 -39,0 -52,0 -13,1 -24,3 -35,5l0 2069 -740 0zm2375 0l628 -1963c62,-196 132,-332 211,-409 79,-76 186,-114 319,-114 125,0 224,33 294,101 70,67 136,195 196,384l649 2001 -824 0 -132 -439 -802 0 -128 439 -411 0zm639 -773l601 0 -289 -1046 -312 1046zm4117 173c-101,224 -238,395 -410,513 -172,118 -373,176 -601,176 -351,0 -637,-119 -859,-356 -222,-237 -333,-545 -333,-923 0,-380 115,-692 344,-934 229,-242 519,-362 871,-362 242,0 445,52 608,157 163,103 281,256 353,459l-340 196c-38,-150 -96,-263 -173,-338 -77,-75 -172,-113 -284,-113 -169,0 -298,78 -388,235 -90,157 -134,385 -134,683 0,321 38,554 114,699 76,146 197,219 364,219 123,0 236,-45 338,-133 101,-88 175,-207 220,-357l310 179z"/>
  <path class="fil0" d="M864 5940l-165 0 -197 -331c-18,-31 -36,-57 -53,-78 -17,-22 -34,-40 -52,-53 -18,-14 -37,-24 -58,-30 -20,-7 -43,-10 -69,-10l-113 0 0 502 -138 0 0 -1179 352 0c51,0 99,6 142,19 44,13 82,33 114,59 32,26 57,59 75,98 18,40 27,85 27,138 0,41 -6,79 -18,113 -12,34 -30,65 -53,91 -23,27 -50,50 -82,69 -32,19 -69,34 -109,44l0 3c20,9 37,19 52,30 14,12 28,25 41,40 13,16 26,33 39,53 13,19 27,42 43,67l222 355zm-707 -1054l0 427 187 0c35,0 67,-5 96,-15 29,-11 55,-26 76,-45 22,-20 38,-43 51,-72 12,-28 18,-60 18,-95 0,-63 -21,-112 -62,-147 -41,-36 -100,-53 -177,-53l-189 0zm1528 667l-595 0c2,94 28,166 76,217 48,52 114,77 198,77 95,0 182,-31 262,-94l0 126c-74,54 -172,81 -294,81 -118,0 -212,-38 -280,-115 -68,-76 -102,-184 -102,-323 0,-131 37,-238 112,-321 74,-82 166,-123 277,-123 110,0 195,35 255,107 61,71 91,170 91,297l0 71zm-138 -115c-1,-78 -20,-139 -57,-182 -37,-44 -88,-66 -154,-66 -63,0 -118,23 -162,69 -44,46 -72,105 -82,179l455 0zm1061 890l-135 0 0 -532 -3 0c-59,110 -155,164 -288,164 -106,0 -191,-37 -255,-113 -64,-75 -96,-178 -96,-308 0,-140 35,-252 106,-336 70,-84 164,-125 283,-125 115,0 198,45 250,135l3 0 0 -115 135 0 0 1230zm-135 -767l0 -123c0,-69 -23,-128 -68,-176 -45,-48 -103,-72 -172,-72 -81,0 -146,31 -193,91 -47,60 -70,145 -70,254 0,98 22,174 68,230 45,55 104,82 176,82 79,0 142,-27 189,-81 47,-54 70,-122 70,-205zm1088 379l-135 0 0 -133 -3 0c-56,102 -143,153 -260,153 -201,0 -301,-119 -301,-359l0 -503 135 0 0 482c0,178 68,267 204,267 65,0 119,-24 162,-73 42,-48 63,-112 63,-190l0 -486 135 0 0 842zm342 -1056c-24,0 -45,-8 -62,-25 -17,-16 -26,-37 -26,-62 0,-25 9,-46 26,-63 17,-17 38,-25 62,-25 25,0 46,8 63,25 18,17 26,38 26,63 0,24 -8,44 -26,61 -17,17 -38,26 -63,26zm66 1056l-135 0 0 -842 135 0 0 842zm713 -705c-24,-19 -58,-28 -103,-28 -57,0 -105,28 -144,82 -39,54 -58,128 -58,222l0 429 -135 0 0 -842 135 0 0 173 3 0c19,-59 49,-105 88,-138 40,-34 84,-50 133,-50 35,0 62,4 81,11l0 141zm823 318l-595 0c2,94 28,166 76,217 48,52 114,77 198,77 95,0 182,-31 262,-94l0 126c-74,54 -172,81 -294,81 -118,0 -212,-38 -280,-115 -68,-76 -102,-184 -102,-323 0,-131 37,-238 112,-321 74,-82 166,-123 277,-123 110,0 195,35 255,107 61,71 91,170 91,297l0 71zm-138 -115c-1,-78 -20,-139 -57,-182 -37,-44 -88,-66 -154,-66 -63,0 -118,23 -162,69 -44,46 -72,105 -82,179l455 0zm1538 502l-135 0 0 -484c0,-94 -14,-161 -43,-203 -29,-42 -78,-63 -145,-63 -58,0 -107,27 -148,80 -40,52 -60,115 -60,189l0 481 -135 0 0 -501c0,-166 -64,-249 -191,-249 -60,0 -109,25 -147,75 -39,50 -58,114 -58,194l0 481 -134 0 0 -842 134 0 0 132 4 0c60,-102 147,-152 261,-152 58,0 108,16 151,48 43,32 72,73 88,125 62,-116 156,-173 280,-173 185,0 278,114 278,343l0 519zm932 -387l-595 0c2,94 28,166 76,217 48,52 114,77 198,77 95,0 182,-31 262,-94l0 126c-74,54 -172,81 -294,81 -118,0 -212,-38 -280,-115 -68,-76 -102,-184 -102,-323 0,-131 37,-238 112,-321 74,-82 166,-123 277,-123 110,0 195,35 255,107 61,71 91,170 91,297l0 71zm-138 -115c-1,-78 -20,-139 -57,-182 -37,-44 -88,-66 -154,-66 -63,0 -118,23 -162,69 -44,46 -72,105 -82,179l455 0zm1041 502l-135 0 0 -481c0,-179 -65,-269 -196,-269 -67,0 -123,26 -167,77 -44,50 -67,115 -67,192l0 481 -134 0 0 -842 134 0 0 140 4 0c63,-107 155,-160 276,-160 92,0 163,29 211,89 49,59 74,145 74,258l0 515zm645 -8c-32,18 -74,27 -126,27 -147,0 -221,-83 -221,-247l0 -500 -145 0 0 -114 145 0 0 -206 135 -44 0 250 212 0 0 114 -212 0 0 476c0,57 9,97 29,122 19,24 50,36 95,36 34,0 63,-10 88,-28l0 114zm1357 -1046l-340 0 0 1054 -138 0 0 -1054 -340 0 0 -125 818 0 0 125zm607 349c-24,-19 -58,-28 -102,-28 -58,0 -106,28 -145,82 -39,54 -58,128 -58,222l0 429 -135 0 0 -842 135 0 0 173 3 0c19,-59 49,-105 88,-138 40,-34 84,-50 133,-50 35,0 62,4 81,11l0 141zm749 705l-135 0 0 -132 -3 0c-59,102 -145,152 -259,152 -84,0 -150,-22 -198,-67 -47,-44 -71,-103 -71,-176 0,-158 93,-250 278,-276l253 -35c0,-144 -58,-216 -173,-216 -102,0 -193,35 -275,105l0 -138c83,-53 178,-79 286,-79 198,0 297,104 297,314l0 548zm-135 -426l-203 28c-63,9 -110,24 -142,47 -31,22 -47,61 -47,118 0,41 14,75 44,101 29,26 68,39 117,39 67,0 122,-23 166,-70 43,-47 65,-107 65,-179l0 -84zm963 388c-64,39 -141,58 -230,58 -120,0 -217,-39 -291,-117 -74,-78 -110,-180 -110,-304 0,-139 40,-251 119,-335 79,-84 186,-126 318,-126 74,0 140,13 196,41l0 137c-63,-44 -129,-66 -201,-66 -86,0 -156,31 -212,93 -55,62 -82,144 -82,244 0,99 26,177 78,235 51,57 121,85 208,85 73,0 143,-24 207,-73l0 128zm881 -349l-595 0c3,94 28,166 76,217 48,52 115,77 199,77 95,0 182,-31 261,-94l0 126c-74,54 -172,81 -293,81 -119,0 -213,-38 -280,-115 -68,-76 -102,-184 -102,-323 0,-131 37,-238 111,-321 74,-82 167,-123 277,-123 110,0 195,35 256,107 60,71 90,170 90,297l0 71zm-138 -115c-1,-78 -19,-139 -56,-182 -38,-44 -89,-66 -155,-66 -63,0 -117,23 -162,69 -44,46 -71,105 -82,179l455 0zm480 381l-3 0 0 121 -135 0 0 -1246 135 0 0 551 3 0c66,-112 163,-167 291,-167 108,0 193,37 254,113 61,75 92,176 92,303 0,141 -34,254 -103,339 -69,85 -163,127 -282,127 -111,0 -195,-47 -252,-141zm-3 -340l0 117c0,70 22,130 68,178 45,49 102,73 172,73 82,0 146,-31 192,-94 46,-63 70,-150 70,-261 0,-94 -22,-168 -65,-222 -44,-53 -102,-80 -176,-80 -79,0 -142,28 -190,82 -47,55 -71,124 -71,207zm924 -595c-24,0 -45,-8 -62,-25 -17,-16 -25,-37 -25,-62 0,-25 8,-46 25,-63 17,-17 38,-25 62,-25 25,0 46,8 63,25 18,17 27,38 27,63 0,24 -9,44 -27,61 -17,17 -38,26 -63,26zm66 1056l-135 0 0 -842 135 0 0 842zm408 0l-135 0 0 -1246 135 0 0 1246zm342 -1056c-24,0 -45,-8 -62,-25 -17,-16 -26,-37 -26,-62 0,-25 9,-46 26,-63 17,-17 38,-25 62,-25 25,0 46,8 63,25 18,17 26,38 26,63 0,24 -8,44 -26,61 -17,17 -38,26 -63,26zm66 1056l-135 0 0 -842 135 0 0 842zm664 -8c-32,18 -74,27 -126,27 -147,0 -221,-83 -221,-247l0 -500 -145 0 0 -114 145 0 0 -206 135 -44 0 250 212 0 0 114 -212 0 0 476c0,57 9,97 28,122 20,24 51,36 96,36 34,0 63,-10 88,-28l0 114zm850 -834l-388 977c-69,174 -165,261 -290,261 -35,0 -65,-4 -88,-11l0 -120c29,10 55,15 79,15 68,0 119,-41 153,-122l68 -160 -329 -840 150 0 227 648c3,8 9,30 17,64l5 0c3,-13 8,-34 17,-63l239 -649 140 0z"/>
  <path class="fil1" d="M9064 0l8399 0 0 947 -7966 0 0 -209c0,-315 -175,-592 -433,-738z"/>
  <path class="fil2" d="M8447 0c442,0 804,362 804,805l0 3284 -1017 0 0 -519 0 -2105c0,-285 -234,-518 -519,-518l-7697 0 0 -947 8429 0z"/>
 </g>
</svg>
